<mxfile host="app.diagrams.net" modified="2023-07-23T03:58:08.881Z" agent="Mozilla/5.0 (Windows NT 10.0; Win64; x64) AppleWebKit/537.36 (KHTML, like Gecko) Chrome/115.0.0.0 Safari/537.36" version="21.3.7" etag="lR87cr1DHLl68Pk3SE6z" type="github">
  <diagram name="Page-1" id="-nouuEo04sPKw0nz7PXP">
    <mxGraphModel>
      <root>
        <mxCell id="0" />
        <mxCell id="1" parent="0" />
      </root>
    </mxGraphModel>
  </diagram>
</mxfile>
